{
  "accessors": [
    {
      "bufferView": 2,
      "componentType": 5126,
      "count": 9597,
      "max": [
        0.8782600164413452,
        1.1337300539016724,
        7.624460220336914
      ],
      "min": [
        -0.604669988155365,
        -1.0071799755096436,
        -0.002529999939724803
      ],
      "type": "VEC3"
    },
    {
      "bufferView": 2,
      "byteOffset": 115164,
      "componentType": 5126,
      "count": 9597,
      "max": [
        0.9999997019767761,
        0.9999997019767761,
        1.0
      ],
      "min": [
        -0.9999997019767761,
        -0.9999979138374329,
        -0.9948002696037292
      ],
      "type": "VEC3"
    },
    {
      "bufferView": 3,
      "componentType": 5126,
      "count": 9597,
      "max": [
        0.9999086260795593,
        0.9999882578849792,
        0.9985958337783813,
        1.0
      ],
      "min": [
        -0.9999886751174927,
        -0.9998929500579834,
        -0.9936547875404358,
        -1.0
      ],
      "type": "VEC4"
    },
    {
      "bufferView": 1,
      "componentType": 5126,
      "count": 9597,
      "max": [
        1.0,
        1.0
      ],
      "min": [
        0.0,
        0.0
      ],
      "type": "VEC2"
    },
    {
      "bufferView": 1,
      "byteOffset": 76776,
      "componentType": 5126,
      "count": 9597,
      "max": [
        0.0,
        0.0
      ],
      "min": [
        0.0,
        0.0
      ],
      "type": "VEC2"
    },
    {
      "bufferView": 0,
      "componentType": 5125,
      "count": 26676,
      "type": "SCALAR"
    }
  ],
  "asset": {
    "extras": {
      "author": "rhcreations (https://sketchfab.com/rhcreations)",
      "license": "CC-BY-4.0 (http://creativecommons.org/licenses/by/4.0/)",
      "source": "https://sketchfab.com/3d-models/cactus-1-downloadable-976b67b80efd4a7388ec85bfc4e39ecf",
      "title": "Cactus 1 (Downloadable)"
    },
    "generator": "Sketchfab-13.36.0",
    "version": "2.0"
  },
  "bufferViews": [
    {
      "buffer": 0,
      "byteLength": 106704,
      "name": "floatBufferViews",
      "target": 34963
    },
    {
      "buffer": 0,
      "byteLength": 153552,
      "byteOffset": 106704,
      "byteStride": 8,
      "name": "floatBufferViews",
      "target": 34962
    },
    {
      "buffer": 0,
      "byteLength": 230328,
      "byteOffset": 260256,
      "byteStride": 12,
      "name": "floatBufferViews",
      "target": 34962
    },
    {
      "buffer": 0,
      "byteLength": 153552,
      "byteOffset": 490584,
      "byteStride": 16,
      "name": "floatBufferViews",
      "target": 34962
    }
  ],
  "buffers": [
    {
      "byteLength": 644136,
      "uri": "scene.bin"
    }
  ],
  "extensionsRequired": [
    "KHR_materials_pbrSpecularGlossiness"
  ],
  "extensionsUsed": [
    "KHR_materials_pbrSpecularGlossiness"
  ],
  "images": [
    {
      "uri": "/textures/Cactus_1_Material_diffuse.png"
    },
    {
      "uri": "/textures/Cactus_1_Material_specularGlossiness.png"
    },
    {
      "uri": "/textures/Cactus_1_Material_normal.png"
    }
  ],
  "materials": [
    {
      "doubleSided": true,
      "extensions": {
        "KHR_materials_pbrSpecularGlossiness": {
          "diffuseFactor": [
            0.705574418251058,
            0.705574418251058,
            0.705574418251058,
            1.0
          ],
          "diffuseTexture": {
            "index": 0
          },
          "glossinessFactor": 1.0,
          "specularFactor": [
            0.2850760362557018,
            0.2850760362557018,
            0.2850760362557018
          ],
          "specularGlossinessTexture": {
            "index": 1
          }
        }
      },
      "name": "Cactus_1_Material",
      "normalTexture": {
        "index": 2,
        "scale": 0.6
      }
    }
  ],
  "meshes": [
    {
      "name": "Cactus 1_0",
      "primitives": [
        {
          "attributes": {
            "NORMAL": 1,
            "POSITION": 0,
            "TANGENT": 2,
            "TEXCOORD_0": 3,
            "TEXCOORD_1": 4
          },
          "indices": 5,
          "material": 0,
          "mode": 4
        }
      ]
    }
  ],
  "nodes": [
    {
      "children": [
        1
      ],
      "matrix": [
        1.0,
        0.0,
        0.0,
        0.0,
        0.0,
        2.220446049250313e-16,
        -1.0,
        0.0,
        0.0,
        1.0,
        2.220446049250313e-16,
        0.0,
        0.0,
        0.0,
        0.0,
        1.0
      ],
      "name": "Sketchfab_model"
    },
    {
      "children": [
        2
      ],
      "name": "Root"
    },
    {
      "children": [
        3
      ],
      "matrix": [
        6.182499999999999,
        0.0,
        0.0,
        0.0,
        0.0,
        6.182499999999999,
        0.0,
        0.0,
        0.0,
        0.0,
        6.182499999999999,
        0.0,
        0.0,
        0.0,
        0.0,
        1.0
      ],
      "name": "Cactus 1"
    },
    {
      "mesh": 0,
      "name": "Cactus 1_0"
    }
  ],
  "samplers": [
    {
      "magFilter": 9729,
      "minFilter": 9987,
      "wrapS": 10497,
      "wrapT": 10497
    }
  ],
  "scene": 0,
  "scenes": [
    {
      "name": "Sketchfab_Scene",
      "nodes": [
        0
      ]
    }
  ],
  "textures": [
    {
      "sampler": 0,
      "source": 0
    },
    {
      "sampler": 0,
      "source": 1
    },
    {
      "sampler": 0,
      "source": 2
    }
  ]
}
